<svg xmlns="http://www.w3.org/2000/svg" width="1200" height="630" viewBox="0 0 1200 630">
  <rect width="1200" height="630" fill="#f7f6f2"/>
  <rect x="0" y="0" width="8" height="630" fill="#01696f"/>
  <!-- Logo icon -->
  <rect x="80" y="200" width="56" height="56" rx="12" fill="#01696f"/>
  <rect x="92" y="214" width="10" height="28" rx="4" stroke="#f9f8f5" stroke-width="2.5" fill="none"/>
  <rect x="108" y="210" width="16" height="8" rx="3" fill="#f9f8f5"/>
  <rect x="108" y="222" width="16" height="8" rx="3" fill="#f9f8f5" opacity="0.72"/>
  <rect x="108" y="234" width="16" height="8" rx="3" fill="#f9f8f5" opacity="0.4"/>
  <!-- Title -->
  <text x="160" y="238" font-family="system-ui, -apple-system, sans-serif" font-size="48" font-weight="700" fill="#28251d">Calculadora de Custos</text>
  <text x="160" y="298" font-family="system-ui, -apple-system, sans-serif" font-size="48" font-weight="700" fill="#01696f">em Nuvem</text>
  <!-- Subtitle -->
  <text x="80" y="360" font-family="system-ui, -apple-system, sans-serif" font-size="26" fill="#66645f">Compare AWS · Google Cloud · Azure — gratuito, sem cadastro</text>
  <!-- Pills -->
  <rect x="80" y="400" width="130" height="44" rx="22" fill="#fdefd9"/>
  <text x="145" y="428" font-family="system-ui, -apple-system, sans-serif" font-size="18" font-weight="700" fill="#da7101" text-anchor="middle">AWS</text>
  <rect x="228" y="400" width="200" height="44" rx="22" fill="#ddeef7"/>
  <text x="328" y="428" font-family="system-ui, -apple-system, sans-serif" font-size="18" font-weight="700" fill="#006494" text-anchor="middle">Google Cloud</text>
  <rect x="446" y="400" width="110" height="44" rx="22" fill="#ede4f9"/>
  <text x="501" y="428" font-family="system-ui, -apple-system, sans-serif" font-size="18" font-weight="700" fill="#7a39bb" text-anchor="middle">Azure</text>
  <!-- Features -->
  <text x="80" y="500" font-family="system-ui, -apple-system, sans-serif" font-size="20" fill="#9d9b96">Kubernetes · SQL · Serverless · CDN · LLM · GPU break-even · Spot · Região</text>
  <!-- URL -->
  <text x="80" y="560" font-family="system-ui, -apple-system, sans-serif" font-size="22" fill="#01696f" font-weight="600">seskelsen.github.io/esk-cloudcalc</text>
  <!-- Right decorative bars -->
  <rect x="860" y="100" width="240" height="60" rx="8" fill="#01696f" opacity="0.85"/>
  <rect x="860" y="175" width="180" height="60" rx="8" fill="#006494" opacity="0.75"/>
  <rect x="860" y="250" width="210" height="60" rx="8" fill="#7a39bb" opacity="0.65"/>
  <rect x="860" y="325" width="240" height="20" rx="4" fill="#dcd9d5"/>
  <text x="980" y="138" font-family="system-ui, -apple-system, sans-serif" font-size="16" font-weight="700" fill="#f9f8f5" text-anchor="middle">AWS   US$ 8.420/mês</text>
  <text x="950" y="213" font-family="system-ui, -apple-system, sans-serif" font-size="16" font-weight="700" fill="#f9f8f5" text-anchor="middle">GCP   US$ 7.840/mês</text>
  <text x="965" y="288" font-family="system-ui, -apple-system, sans-serif" font-size="16" font-weight="700" fill="#f9f8f5" text-anchor="middle">Azure  US$ 8.710/mês</text>
</svg>
